# xmcd
#
# Track frame offsets: 
#        150
#        8648
#        19526
#        36327
#        46229
#        54255
#        62721
#        70051
#        78554
#        87113
#        101232
#        111747
#
# Disc length: 1633 seconds
#
# Revision: 0
# Processed by: cddbd v1.5.2PL0 Copyright (c) Steve Scherf et al.
# Submitted via: ExactAudioCopy v0.99pb4
#
DISCID=97065f0c
DTITLE=Nat King Cole - Too Young
DYEAR=1900
DGENRE=Soul
TTITLE0=I'm In The Mood For Love (live)
TTITLE1=Embraceable You (live)
TTITLE2=Too Young
TTITLE3=I've Grown Accustomed To Her Face (live)
TTITLE4=Sweet Sue, Just You (live)
TTITLE5=A House With Love In It (live)
TTITLE6=Pick Yourself Up (live)
TTITLE7=Just In Time (live)
TTITLE8=This Can't Be Love (live)
TTITLE9=Tea For Two (live)
TTITLE10=Early American (live)
TTITLE11=Night Lights (live)
EXTD=
EXTT0=
EXTT1=
EXTT2=
EXTT3=
EXTT4=
EXTT5=
EXTT6=
EXTT7=
EXTT8=
EXTT9=
EXTT10=
EXTT11=
PLAYORDER=
